<svg width="17" height="19" viewBox="0 0 17 19" fill="none" xmlns="http://www.w3.org/2000/svg">
<g clip-path="url(#clip0_113_57)">
<mask id="mask0_113_57" style="mask-type:luminance" maskUnits="userSpaceOnUse" x="0" y="1" width="17" height="18">
<path d="M16.9412 1.5459H0V18.4871H16.9412V1.5459Z" fill="white"/>
</mask>
<g mask="url(#mask0_113_57)">
<path d="M7.88946 5.60581C7.98513 5.60581 8.04593 5.54502 8.06685 5.44935C8.25719 4.3392 8.25021 4.32526 9.42214 4.09405C9.51781 4.07413 9.5786 4.01832 9.5786 3.91667C9.5786 3.82101 9.51781 3.76022 9.42214 3.74626C8.25021 3.52802 8.27114 3.5071 8.06685 2.39097C8.04692 2.2953 7.98513 2.22754 7.88946 2.22754C7.7938 2.22754 7.73301 2.2953 7.71208 2.39097C7.50779 3.49414 7.53569 3.5071 6.35678 3.74626C6.26112 3.76022 6.20033 3.82101 6.20033 3.91567C6.20033 4.01832 6.26112 4.07313 6.36376 4.09405C7.52872 4.31828 7.52174 4.32526 7.71208 5.44935C7.73202 5.54502 7.7938 5.60581 7.88946 5.60581ZM4.57896 10.436C4.72844 10.436 4.84404 10.3264 4.86497 10.1839C5.09616 8.39214 5.144 8.37818 7.02447 8.03139C7.09281 8.02393 7.15588 7.99115 7.20126 7.9395C7.24663 7.88785 7.27101 7.82109 7.26962 7.75235C7.26962 7.60287 7.16 7.48628 7.01749 7.47332C5.15097 7.21423 5.09616 7.15941 4.86497 5.32678C4.84504 5.17729 4.73542 5.06767 4.57896 5.06767C4.42948 5.06767 4.31986 5.17729 4.29992 5.33376C4.08069 7.12553 4.00695 7.12553 2.13943 7.47233C1.98995 7.49225 1.88831 7.60187 1.88831 7.75136C1.88831 7.90882 1.98995 8.01046 2.16734 8.03039C4.00695 8.31739 4.08069 8.37918 4.29992 10.17C4.31986 10.3274 4.42948 10.436 4.57896 10.436ZM9.38228 17.9499C9.59255 17.9499 9.75599 17.8004 9.79087 17.5752C10.2871 13.9179 10.7974 13.3379 14.4298 12.9294C14.5341 12.9229 14.6321 12.8771 14.7043 12.8013C14.7764 12.7256 14.8171 12.6253 14.8184 12.5208C14.8184 12.3015 14.654 12.1391 14.4298 12.1052C10.8322 11.6758 10.321 11.1515 9.78987 7.45938C9.75001 7.24014 9.59255 7.09065 9.38128 7.09065C9.17001 7.09065 9.00658 7.24014 8.9727 7.45938C8.47443 11.1236 7.96421 11.7027 4.33381 12.1052C4.10859 12.1321 3.94517 12.3026 3.94517 12.5208C3.94517 12.7321 4.10859 12.9025 4.33381 12.9294C7.92335 13.4197 8.42062 13.8901 8.9727 17.5752C9.01257 17.8004 9.17101 17.9499 9.38228 17.9499Z" fill="#F45B05"/>
</g>
</g>
<defs>
<clipPath id="clip0_113_57">
<rect width="16.9412" height="18" fill="white" transform="translate(0 0.899902)"/>
</clipPath>
</defs>
</svg>
